HIERARCHY
ROOT root
{
	OFFSET	0	13.1	24.9
	CHANNELS 6  Xposition Yposition Zposition Xrotation Yrotation Zrotation
	JOINT spine_1
	{
		OFFSET	0	9.99999	0
		CHANNELS 3  Xrotation Yrotation Zrotation
		JOINT spine_2
		{
			OFFSET	0	112	-10
			CHANNELS 3  Xrotation Yrotation Zrotation
			JOINT spine_3
			{
				OFFSET	0	206.5	19.3
				CHANNELS 3  Xrotation Yrotation Zrotation
				JOINT spine_4
				{
					OFFSET	0	110.4	14.6
					CHANNELS 3  Xrotation Yrotation Zrotation
					JOINT neck_1
					{
						OFFSET	0	71.8	-50.3
						CHANNELS 3  Xrotation Yrotation Zrotation
						JOINT neck_2
						{
							OFFSET	0	86.2	-25.8
							CHANNELS 3  Xrotation Yrotation Zrotation
							JOINT head_ee
							{
								OFFSET	0	179.8	-8.7
								CHANNELS 3  Xrotation Yrotation Zrotation
								End Site
								{
									OFFSET	1	0	0
								}
							}
						}
					}
					JOINT left_clavicle
					{
						OFFSET	-43.2	22.4	-70.8
						CHANNELS 3  Xrotation Yrotation Zrotation
						JOINT left_shoulder
						{
							OFFSET	-93.9	-5.79999	48.7
							CHANNELS 3  Xrotation Yrotation Zrotation
							JOINT left_elbow
							{
								OFFSET	-291.4	-30.8	15.2
								CHANNELS 3  Xrotation Yrotation Zrotation
								JOINT left_lowarm_twist
								{
									OFFSET	-110.7	-3.89999	13.6
									CHANNELS 3  Xrotation Yrotation Zrotation
									JOINT left_hand
									{
										OFFSET	-110.7	-3.89999	13.6
										CHANNELS 3  Xrotation Yrotation Zrotation
										JOINT left_ee
										{
											OFFSET	-80.8	-5.10001	12.1
											CHANNELS 3  Xrotation Yrotation Zrotation
											End Site
											{
												OFFSET	1	0	0
											}
										}
									}
								}
							}
						}
					}
					JOINT right_clavicle
					{
						OFFSET	43.2	22.4	-70.8
						CHANNELS 3  Xrotation Yrotation Zrotation
						JOINT right_shoulder
						{
							OFFSET	93.9	-5.79999	48.7
							CHANNELS 3  Xrotation Yrotation Zrotation
							JOINT right_elbow
							{
								OFFSET	291.4	-30.8	15.2
								CHANNELS 3  Xrotation Yrotation Zrotation
								JOINT right_lowarm_twist
								{
									OFFSET	110.7	-3.89999	13.6
									CHANNELS 3  Xrotation Yrotation Zrotation
									JOINT right_hand
									{
										OFFSET	110.7	-3.89999	13.6
										CHANNELS 3  Xrotation Yrotation Zrotation
										JOINT right_ee
										{
											OFFSET	80.8	-5.10001	12.1
											CHANNELS 3  Xrotation Yrotation Zrotation
											End Site
											{
												OFFSET	1	0	0
											}
										}
									}
								}
							}
						}
					}
				}
			}
		}
	}
	JOINT left_hip
	{
		OFFSET	-82.8	-127.5	0.300001
		CHANNELS 3  Xrotation Yrotation Zrotation
		JOINT left_knee
		{
			OFFSET	-28.2	-396.7	2.2
			CHANNELS 3  Xrotation Yrotation Zrotation
			JOINT left_ankle
			{
				OFFSET	-11.7	-411.3	35.4
				CHANNELS 3  Xrotation Yrotation Zrotation
				JOINT left_toes
				{
					OFFSET	0	-60	-88.6
					CHANNELS 3  Xrotation Yrotation Zrotation
					JOINT left_foot_ee
					{
						OFFSET	-22.5	-16.5	-42.2
						CHANNELS 3  Xrotation Yrotation Zrotation
						End Site
						{
							OFFSET	1	0	0
						}
					}
				}
			}
		}
	}
	JOINT right_hip
	{
		OFFSET	82.8	-127.5	0.300001
		CHANNELS 3  Xrotation Yrotation Zrotation
		JOINT right_knee
		{
			OFFSET	28.2	-396.7	2.2
			CHANNELS 3  Xrotation Yrotation Zrotation
			JOINT right_ankle
			{
				OFFSET	11.7	-411.3	35.4
				CHANNELS 3  Xrotation Yrotation Zrotation
				JOINT right_toes
				{
					OFFSET	0	-60	-88.6
					CHANNELS 3  Xrotation Yrotation Zrotation
					JOINT right_foot_ee
					{
						OFFSET	22.5	-16.5	-42.2
						CHANNELS 3  Xrotation Yrotation Zrotation
						End Site
						{
							OFFSET	1	0	0
						}
					}
				}
			}
		}
	}
}
MOTION
Frames: 10
Frame Time: 0.02
528.807053839 697.519 -1199.69806008 -166.869382566 -37.9745670319 -171.174737329 2.60577 -0.213506 0.634358 2.60596 -0.253439 0.619487 2.60315 -0.352517 0.568971 2.60279 -0.258236 0.617502 -4.22019 14.9876 -0.312392 -3.97479 27.72 2.08589 -0.0 0.0 -0.0 -2.05964 19.4873 -0.779822 -10.9158 -61.1182 63.4906 0.575999 -15.9254 0.0805696 10.3479 0.248069 -1.29678 -1.7183 9.18711 -7.26391 -0.0 0.0 -0.0 9.87754 8.70695 -19.5789 -19.416 18.0012 -58.8162 0.739646 20.1228 -0.131239 26.2776 -0.166326 3.32334 1.99295 -17.7239 -19.7124 0.0 0.0 0.0 19.8868 -6.98515 4.38873 -39.0582 -0.407943 5.866 42.5509 25.7117 -5.43127 -30.061 0.0 0.0 -0.0 0.0 -0.0 33.3954 16.6524 -0.177484 -41.141 0.540949 -6.15726 35.5967 -25.9419 4.75304 -17.6848 0.0 0.0 0.0 0.0 0.0 
537.632817652 703.491 -1194.69854806 -167.346433742 -37.3621699079 -172.175530765 2.85755 -0.150365 0.656317 2.85777 -0.191823 0.64542 2.85552 -0.293377 0.606048 2.85506 -0.193983 0.644774 -5.47373 14.7154 1.71221 -5.3633 25.9064 4.3914 -0.0 0.0 -0.0 -1.19365 19.4716 0.503488 -9.24325 -58.7949 63.6492 0.524979 -14.5776 0.0671474 9.17335 0.231755 -1.14764 -2.24808 8.80354 -10.9085 -0.0 0.0 -0.0 9.82543 8.06958 -19.4688 -19.7835 15.7844 -59.1536 0.639459 17.5767 -0.0988615 26.4205 -0.163047 3.3413 1.50292 -21.6251 -17.7672 0.0 0.0 0.0 17.1632 -7.28746 4.79892 -33.1883 -0.0911984 5.02193 41.9084 26.9247 -5.41698 -29.3711 0.0 0.0 -0.0 0.0 -0.0 36.7037 13.4932 -0.443822 -41.6505 0.575094 -6.22777 29.4915 -28.7344 4.14854 -16.4531 0.0 0.0 0.0 0.0 0.0 
542.603201087 701.502 -1190.26454007 -167.972426989 -38.4716927819 -172.098754398 2.55942 -0.135036 0.561575 2.55958 -0.170497 0.551844 2.55788 -0.259922 0.515793 2.55756 -0.175201 0.550369 -7.26445 14.5733 1.02786 -7.28832 26.4143 4.08317 -0.0 0.0 -0.0 -0.566876 19.2196 1.40052 -8.57262 -60.8474 61.5977 0.544288 -15.0897 0.0720909 7.36063 0.200586 -0.918195 -2.74625 8.03433 -14.6055 -0.0 0.0 -0.0 10.0326 5.70228 -19.9023 -21.3553 17.0963 -57.8379 0.579937 16.0287 -0.0816533 26.9747 -0.149908 3.41087 1.6963 -20.2384 -18.5638 0.0 0.0 0.0 15.5238 -6.577 3.81305 -31.8973 -0.0332704 4.83232 40.1599 26.1432 -5.22197 -29.9013 0.0 0.0 -0.0 0.0 -0.0 37.7156 17.5723 -1.64794 -40.833 0.520611 -6.11449 31.4651 -25.3604 4.28395 -19.4301 0.0 0.0 0.0 0.0 0.0 
552.751420946 700.213 -1185.53811278 -168.209282441 -37.8122485474 -172.070045903 2.59135 -0.15382 0.460701 2.59145 -0.182824 0.44998 2.58998 -0.254899 0.413441 2.58979 -0.186405 0.448508 -8.33769 14.5716 1.47789 -8.44313 26.247 4.77782 -0.0 0.0 -0.0 -0.194481 19.3085 1.96543 -7.89885 -61.2576 60.3525 0.602336 -16.6142 0.0879482 7.30178 0.199453 -0.910763 -2.89685 8.67397 -15.2819 -0.0 0.0 -0.0 9.45171 6.45498 -18.6654 -22.198 17.2014 -58.6238 0.574189 15.8778 -0.0800736 27.4883 -0.13713 3.47524 1.99295 -20.7901 -20.608 0.0 0.0 0.0 15.1075 -6.2896 4.18782 -33.1361 -0.0887756 5.0143 41.053 26.2223 -5.31032 -29.1861 0.0 0.0 -0.0 0.0 -0.0 39.152 18.1571 -2.08324 -38.4478 0.37098 -5.77975 27.9443 -24.7214 3.85989 -20.6411 0.0 0.0 0.0 0.0 0.0 
559.281773935 701.491 -1182.55200479 -167.402143499 -39.5519501923 -170.688431622 2.75172 -0.207297 0.266268 2.75173 -0.22382 0.252537 2.75073 -0.261995 0.212671 2.75074 -0.22512 0.251379 -9.10842 14.9771 2.89909 -9.25844 26.1475 6.44123 -0.0 0.0 -0.0 0.57222 18.2255 3.00003 -9.27993 -59.9695 57.5258 0.767929 -20.8272 0.141132 5.90027 0.170204 -0.734125 -3.18882 8.82936 -17.1675 -0.0 0.0 -0.0 9.2056 5.54825 -18.1386 -22.946 16.3988 -58.8841 0.533612 14.8068 -0.069337 27.8742 -0.12715 3.52353 2.24931 -22.6065 -22.7349 0.0 0.0 0.0 11.272 -4.73569 3.27972 -26.786 0.153689 4.07044 37.0652 25.4277 -4.89012 -30.7853 0.0 0.0 -0.0 0.0 -0.0 40.2067 19.6489 -2.82005 -29.2069 -0.0736253 -4.43332 19.1793 -23.5914 2.73952 -22.2218 0.0 0.0 0.0 0.0 0.0 
566.424018793 697.997 -1177.23794173 -164.777521633 -41.2392599498 -168.585158344 3.0096 -0.115629 0.306771 3.00964 -0.134915 0.298791 3.00892 -0.180589 0.273617 3.00884 -0.13511 0.298703 -4.64575 14.8313 3.55655 -4.48061 24.5943 6.11021 -0.0 0.0 -0.0 1.13027 18.0593 3.83278 -9.13324 -56.108 55.4677 0.997867 -26.3033 0.233165 3.52071 0.110674 -0.436007 -3.35586 7.27222 -19.1607 -0.0 0.0 -0.0 9.14958 4.48556 -18.0124 -23.7636 15.2556 -59.8654 0.418834 11.7215 -0.0429927 27.1026 -0.14678 3.42691 1.92787 -26.909 -21.8034 0.0 0.0 0.0 8.99965 -2.49552 3.04055 -17.3775 0.317639 2.63761 41.0251 25.5793 -5.285 -33.0407 0.0 0.0 -0.0 0.0 -0.0 43.099 18.3742 -3.02902 -24.5981 -0.212794 -3.73988 14.9091 -24.7325 2.1778 -21.7072 0.0 0.0 0.0 0.0 0.0 
566.724156043 697.997 -1179.24213178 -164.624057015 -41.8721114529 -168.353813343 3.0096 -0.115629 0.306771 3.00964 -0.134915 0.298791 3.00892 -0.180589 0.273617 3.00884 -0.13511 0.298703 -4.64575 14.8313 3.55655 -4.48061 24.5943 6.11021 -0.0 0.0 -0.0 1.13027 18.0593 3.83278 -9.13324 -56.108 55.4677 0.997867 -26.3033 0.233165 3.52071 0.110674 -0.436007 -3.35586 7.27222 -19.1607 -0.0 0.0 -0.0 9.14958 4.48556 -18.0124 -23.7636 15.2556 -59.8654 0.418834 11.7215 -0.0429927 27.1026 -0.14678 3.42691 1.92787 -26.909 -21.8034 0.0 0.0 0.0 8.99965 -2.49552 3.04055 -17.3775 0.317639 2.63761 41.0251 25.5793 -5.285 -33.0407 0.0 0.0 -0.0 0.0 -0.0 43.099 18.3742 -3.02902 -24.5981 -0.212794 -3.73988 14.9091 -24.7325 2.1778 -21.7072 0.0 0.0 0.0 0.0 0.0 
579.851428087 696.203 -1173.67054596 -162.666269326 -45.2089820809 -165.99229944 2.8247 -0.0224735 0.0607198 2.82471 -0.0262917 0.0591667 2.82468 -0.0355152 0.0541352 2.82467 -0.0265199 0.0590648 -3.46004 14.6979 4.33068 -3.23326 23.5098 6.66795 -0.0 0.0 -0.0 1.60418 20.3712 4.71226 -9.52828 -54.2036 53.7912 1.45031 -35.6929 0.466963 0.160755 0.00563638 -0.0197567 -3.28267 4.63933 -20.0758 -0.0 0.0 -0.0 8.78312 1.82245 -17.2105 -24.4623 14.4992 -59.4834 0.392631 11.0067 -0.0378294 27.9296 -0.125691 3.53045 1.78976 -28.5819 -21.3772 0.0 0.0 0.0 7.87313 -0.0848528 1.98917 -14.3898 0.320273 2.17928 42.4337 24.6046 -5.38193 -37.9785 0.0 0.0 -0.0 0.0 -0.0 45.2774 18.9981 -2.68109 -22.4175 -0.259094 -3.40848 6.47668 -19.518 0.950027 -20.6133 0.0 0.0 0.0 0.0 0.0 
580.065643466 696.203 -1175.01096263 -162.542670995 -45.5979738132 -165.818724084 2.8247 -0.0224735 0.0607198 2.82471 -0.0262917 0.0591667 2.82468 -0.0355152 0.0541352 2.82467 -0.0265199 0.0590648 -3.46004 14.6979 4.33068 -3.23326 23.5098 6.66795 -0.0 0.0 -0.0 1.60418 20.3712 4.71226 -9.52828 -54.2036 53.7912 1.45031 -35.6929 0.466963 0.160755 0.00563638 -0.0197567 -3.28267 4.63933 -20.0758 -0.0 0.0 -0.0 8.78312 1.82245 -17.2105 -24.4623 14.4992 -59.4834 0.392631 11.0067 -0.0378294 27.9296 -0.125691 3.53045 1.78976 -28.5819 -21.3772 0.0 0.0 0.0 7.87313 -0.0848528 1.98917 -14.3898 0.320273 2.17928 42.4337 24.6046 -5.38193 -37.9785 0.0 0.0 -0.0 0.0 -0.0 45.2774 18.9981 -2.68109 -22.4175 -0.259094 -3.40848 6.47668 -19.518 0.950027 -20.6133 0.0 0.0 0.0 0.0 0.0 
592.039121363 690.078 -1171.45054726 -161.793676498 -46.2280200285 -164.815139102 2.58187 0.176856 -0.111056 2.58186 0.183564 -0.0995771 2.58154 0.197542 -0.0677379 2.58158 0.184365 -0.0980859 -3.86749 15.0762 3.61155 -3.65031 24.8451 6.05777 -0.0 0.0 -0.0 1.39107 19.8493 4.36307 -7.09592 -49.712 55.2165 1.89195 -43.1393 0.747975 -2.70691 -0.103206 0.330206 -3.15885 0.600608 -21.3119 -0.0 0.0 -0.0 8.51396 1.2232 -16.648 -25.6925 13.8477 -59.4814 0.443542 12.3922 -0.0481538 27.2796 -0.142392 3.4491 1.29327 -29.1203 -18.6234 0.0 0.0 0.0 6.4776 0.793825 1.70765 -12.9765 0.313192 1.96256 42.64 22.1629 -5.32371 -39.1269 0.0 0.0 -0.0 0.0 -0.0 46.4517 19.5048 -2.73231 -18.2575 -0.312307 -2.77253 3.61198 -15.5969 0.528033 -19.0362 0.0 0.0 0.0 0.0 0.0 
